<?xml version="1.0" encoding="UTF-8"?>
<svg id="Layer_1" data-name="Layer 1" xmlns="http://www.w3.org/2000/svg" viewBox="0 0 1635.21 282.05">
  <defs>
    <style>
      .cls-1 {
        fill: #5ea7d2;
      }

      .cls-2 {
        fill: #393633;
      }
    </style>
  </defs>
  <g>
    <path class="cls-1" d="M225.93,190.38l9.13,14.6,23.52,37.08c-2.84-.21-3.82-2.1-5.42-3.7l-34.83-34.57-8.6-8.52-28.89-28.51-12.25-12.35-30.16-30.32-6-5.92-23.86-23.73-18.41-18.62-13.65-13.72-5.42-5.48c-4.35-4.4-8.43-6.84-14.67-6.83l-25.71.06-6.23-.07-6.97.05-16.99.12-.27-15.71V14.73S.63.09.63.09l127.06.02.03,4.43.06,6.54.04,9.13-.03,8.35-.03,7.03-.02,8.47v8.02s.09,6.9.09,6.9c.04,2.6.04,5.05-.07,7.71-.12,2.95.43,6.41.1,9.27-.77,6.7,2.02,11.34,6.65,15.6,2.93,2.7,5.68,5.66,8.55,8.52l18.2,18.19,11.59,11.54,18.96,18.97,8.46,8.42,7.22,7.35c4.71,4.8,8.59,9.81,11.78,15.69,1.93,3.55,4.43,6.59,6.65,10.15Z"/>
    <path class="cls-1" d="M164.38,231.35l-24.18.04h-47.08c-4.91,0-9.46.17-14.33-.1-10.9-.59-21.5-1.44-32.08-4.6-19.54-5.84-35.26-22.85-41.76-42.03C.65,171.98-.51,158.73.19,145.49l.49-9.35,19.78-.27,8-.09,6.6.17,38.96.16c2.09,0,4.68,1.9,6.09,3.34l19.03,19.51,38.37,39.01,13.95,14.15,14.72,15.57c.4.42.46,2.01.29,2.51s-1.26,1.14-2.1,1.14Z"/>
    <path class="cls-1" d="M244.35,169l4.43,7.71,7.59,13.41c.81,1.43,1.01,3.23-1.06,3.99l-16.52-17.29-27.32-27.81-24.48-24.9-7.97-8.06-22.72-22.76-9.65-9.43c-3.12-3.05-5.62-7.1-5.62-11.87l-.02-71.8c7.25-.12,14-.34,21,0,6.86.34,13.17,2.26,19.95,3.49,15.59,5.69,25.58,11.71,35.58,25.18,6.23,8.39,9.96,17.65,12.3,27.81,2.13,9.24,2.3,18.42,2.26,27.9l-.02,6.02-.02,52.31c0,2.89,1.13,5.65,2.46,8.09l9.81,18Z"/>
    <path class="cls-1" d="M225.45,266.89l-16.65-17.13-15.53-15.53-8.97-9.52-31.73-32.14-23-23-6.74-6.85-16.28-16.69-19.65-19.82c-4.56-4.6-9.29-3.67-15.51-3.77l-43.36.03-27.45.04.11-52.36v-5.2c.01-.84.76-1.85,1.8-1.85l32.35.13,23.05-.12,10.41,11.13,20.51,20.55,29.3,29.56,15.83,15.77,14.19,14.36,34.72,34.72c6.19,6.19,11.35,12.51,16.22,19.78l7.23,10.79,20.76,31.14,5.26,7.84,15.46,23.29-10.4-4.63c-4.75-2.12-8.17-6.66-11.92-10.52Z"/>
  </g>
  <g>
    <path class="cls-1" d="M377.92,185.22c-11.83,0-22.18-2.42-31.06-7.26-8.87-4.84-15.76-11.62-20.65-20.33-4.9-8.71-7.34-18.88-7.34-30.49s2.55-21.62,7.66-30.33c5.11-8.71,12.26-15.51,21.46-20.41,9.2-4.89,19.82-7.34,31.86-7.34s22.13,2.42,30.9,7.26c8.76,4.84,15.59,11.62,20.49,20.33,4.89,8.71,7.34,18.93,7.34,30.65s-2.56,21.46-7.66,30.17c-5.11,8.71-12.21,15.52-21.3,20.41-9.09,4.9-19.66,7.34-31.7,7.34ZM382.44,176.51c8.07,0,15.08-1.8,21.05-5.41,5.97-3.6,10.59-8.66,13.88-15.17,3.28-6.51,4.92-14.17,4.92-22.99,0-10.75-2.04-20.27-6.13-28.56-4.09-8.28-9.68-14.79-16.78-19.52-7.1-4.73-15.22-7.1-24.36-7.1-8.07,0-15.08,1.8-21.05,5.4-5.97,3.6-10.59,8.66-13.88,15.17-3.28,6.51-4.92,14.17-4.92,22.99,0,10.65,2.04,20.14,6.13,28.48,4.09,8.34,9.68,14.87,16.78,19.6,7.1,4.73,15.22,7.1,24.36,7.1ZM433.58,198.45l-49.69-13.55,1.61-2.9h52.6v16.46h-4.52Z"/>
    <path class="cls-1" d="M448.91,183.61v-6.13l3.39-.32c3.66-.43,6.29-1.05,7.91-1.86s2.74-2.07,3.39-3.79c.65-1.72,1.07-4.03,1.29-6.94l6.78-74.86c.43-4.3-.27-7.34-2.1-9.12-1.83-1.77-5.7-2.93-11.62-3.47l-3.39-.32v-6.13h33.07l35.82,95.83h-4.19l34.69-95.83h32.11v6.13l-3.39.32c-3.87.32-6.72.92-8.55,1.77-1.83.86-2.96,2.15-3.39,3.87-.43,1.72-.54,4.03-.32,6.94l6.62,72.76c.43,4.09,1.24,7.13,2.42,9.12,1.18,1.99,2.82,3.33,4.92,4.03,2.1.7,4.6,1.21,7.5,1.53l3.71.32v6.13h-47.76v-6.13l5.32-.48c4.52-.43,7.26-1.75,8.23-3.95.97-2.2,1.24-5.73.81-10.57l-7.1-80.02,2.26.48-36.62,100.67h-6.13l-35.33-93.9-5.49,74.86c-.22,2.9-.08,5.27.4,7.1.48,1.83,1.75,3.17,3.79,4.03,2.04.86,5.38,1.4,10,1.61l3.39.16v6.13h-42.43Z"/>
    <path class="cls-1" d="M687.2,184.58c-4.2-.32-8.42-.56-12.67-.73-4.25-.16-7.77-.24-10.57-.24h-58.73v-6.13l3.87-.32c5.27-.21,8.85-1.07,10.73-2.58,1.88-1.5,2.82-4.25,2.82-8.23v-78.41c0-3.98-.94-6.72-2.82-8.23-1.88-1.5-5.46-2.36-10.73-2.58l-3.87-.32v-6.13h59.05c3.98,0,7.85-.05,11.62-.16,3.76-.11,7.47-.38,11.13-.81l2.42,26.14h-6.29c-1.4-6.34-3.66-10.86-6.78-13.55-3.12-2.69-7.58-4.03-13.39-4.03h-25.17v43.88h32.43c3.87,0,6.56-.81,8.07-2.42,1.51-1.61,2.42-4.46,2.74-8.55l.16-2.9h6.13v35.17h-6.13l-.16-3.07c-.22-3.98-1.1-6.78-2.66-8.39-1.56-1.61-4.28-2.42-8.15-2.42h-32.43v36.78c0,3.23.62,5.54,1.86,6.94,1.24,1.4,3.36,2.21,6.37,2.42,3.01.22,7.04.32,12.1.32s9.6-.78,12.99-2.34c3.39-1.56,6.18-4.01,8.39-7.34,2.2-3.33,4-7.85,5.4-13.55h6.45l-4.19,31.78Z"/>
    <path class="cls-1" d="M707.21,183.61v-6.13l3.87-.32c5.27-.21,8.85-1.1,10.73-2.66,1.88-1.56,2.82-4.28,2.82-8.15v-78.41c0-3.87-.94-6.59-2.82-8.15-1.88-1.56-5.46-2.45-10.73-2.66l-3.87-.32v-6.13h53.4c13.23,0,24.58,2.12,34.04,6.37,9.46,4.25,16.72,10.43,21.78,18.55,5.05,8.12,7.58,18.1,7.58,29.93s-2.48,22.24-7.42,30.9c-4.95,8.66-12.16,15.35-21.62,20.09-9.47,4.73-20.87,7.1-34.2,7.1h-53.56ZM763.19,176.03c13.77,0,24.63-3.95,32.59-11.86,7.96-7.91,11.94-19.28,11.94-34.12,0-10.65-2.02-19.84-6.05-27.59-4.03-7.74-9.63-13.77-16.78-18.07-7.15-4.3-15.3-6.45-24.44-6.45-3.44,0-6.78.08-10,.24-3.23.16-6.78.46-10.65.89v85.83c0,3.01.67,5.32,2.02,6.94,1.34,1.61,3.74,2.72,7.18,3.31,3.44.59,8.17.89,14.2.89Z"/>
    <path class="cls-2" d="M875.97,183.61v-6.13l3.87-.32c3.98-.21,6.91-.73,8.79-1.53,1.88-.81,3.15-1.99,3.79-3.55.64-1.56.97-3.47.97-5.73v-78.41c0-2.36-.32-4.3-.97-5.81-.65-1.5-1.91-2.66-3.79-3.47-1.88-.81-4.81-1.32-8.79-1.53l-3.87-.32v-6.13h48.08c13.34,0,23.12,2.56,29.36,7.66,6.24,5.11,9.36,12.02,9.36,20.73,0,6.45-1.53,12.32-4.6,17.59-3.07,5.27-7.66,9.41-13.79,12.42-6.13,3.01-13.87,4.57-23.23,4.68l-16.78.16v-7.1h12.26c5.81,0,10.94-.94,15.41-2.82,4.46-1.88,7.96-4.76,10.49-8.63,2.53-3.87,3.79-8.77,3.79-14.68,0-7.2-1.88-12.88-5.65-17.02-3.77-4.14-9.63-6.21-17.59-6.21-4.3,0-7.8.35-10.49,1.05-2.69.7-4.03,2.29-4.03,4.76v83.09c0,2.37.32,4.3.97,5.81.64,1.51,2.07,2.66,4.28,3.47,2.2.81,5.51,1.32,9.92,1.53l3.87.32v6.13h-51.63Z"/>
    <path class="cls-2" d="M969.7,183.61v-6.13l3.55-.48c3.87-.43,6.4-1.45,7.58-3.06,1.18-1.61,1.77-4.09,1.77-7.42v-89.86c0-3.98-1.1-6.53-3.31-7.66-2.21-1.13-5.3-1.8-9.28-2.02v-5.32l24.85-7.1h2.26v55.5h.97c3.23-2.8,6.29-5.08,9.2-6.86,2.9-1.77,5.97-3.07,9.2-3.87,3.23-.81,6.88-1.21,10.97-1.21,7.64,0,13.63,1.91,17.99,5.73,4.36,3.82,6.53,9.22,6.53,16.21v46.46c0,3.33.56,5.81,1.69,7.42,1.13,1.61,3.63,2.64,7.5,3.06l3.71.48v6.13h-40.33v-6.13l3.55-.48c3.87-.43,6.4-1.45,7.58-3.06,1.18-1.61,1.78-4.09,1.78-7.42v-40.33c0-4.41-.83-7.77-2.5-10.08-1.67-2.31-3.9-3.95-6.7-4.92-2.8-.97-6.03-1.45-9.68-1.45-4.41,0-8.26.65-11.54,1.94-3.28,1.29-6.59,3.23-9.92,5.81v49.05c0,3.33.56,5.81,1.69,7.42,1.13,1.61,3.63,2.64,7.5,3.06l3.71.48v6.13h-40.33Z"/>
    <path class="cls-2" d="M1096.35,185.22c-4.95,0-8.87-.83-11.78-2.5-2.9-1.67-4.95-3.76-6.13-6.29-1.19-2.53-1.78-5.13-1.78-7.82,0-3.76,1.29-7.56,3.87-11.37,2.58-3.82,6.91-7.58,12.99-11.29,6.08-3.71,14.22-7.34,24.44-10.89l4.36-1.45.32-13.55c.11-3.98-1.13-7.29-3.71-9.92-2.58-2.63-6.03-3.95-10.33-3.95-3.87,0-7.04,1.18-9.52,3.55-2.48,2.37-4.3,5.86-5.49,10.49-.22,1.18-1.45,2.26-3.71,3.23-2.26.97-5.06,1.45-8.39,1.45-1.94,0-3.39-.24-4.36-.73s-1.18-1.53-.65-3.15c1.72-4.19,4.57-8.01,8.55-11.45,3.98-3.44,8.5-6.21,13.55-8.31,5.05-2.1,10.06-3.15,15-3.15,6.99,0,12.72,1.67,17.18,5,4.46,3.33,6.59,8.01,6.37,14.04l-1.61,48.24c-.11,4.19.94,6.88,3.15,8.07,2.2,1.18,6.43,1.99,12.66,2.42v4.68l-5.65,1.45c-3.55.86-6.29,1.53-8.23,2.02-1.94.48-3.44.73-4.52.73-2.9,0-5.08-.64-6.53-1.94s-2.48-2.8-3.07-4.52c-.59-1.72-1-3.12-1.21-4.19h-1.29c-4.63,4.52-8.93,7.5-12.91,8.95-3.98,1.45-7.85,2.18-11.62,2.18ZM1104.74,173.61c3.87,0,7.07-.62,9.6-1.86,2.53-1.24,4.81-2.55,6.86-3.95l.97-27.27-1.61.48c-7.85,2.48-13.77,5.14-17.75,7.99-3.98,2.85-6.67,5.65-8.07,8.39-1.4,2.74-2.1,5.08-2.1,7.02,0,6.13,4.03,9.2,12.1,9.2Z"/>
    <path class="cls-2" d="M1158.79,183.61v-6.13l3.71-.48c3.55-.32,5.97-1.23,7.26-2.74,1.29-1.5,1.94-4.09,1.94-7.74v-45.66c0-3.44-.92-5.86-2.74-7.26-1.83-1.4-5.11-2.2-9.84-2.42v-5.32l24.36-7.1h2.26v12.91h1.45c2.36-3.44,5.49-6.51,9.36-9.2,3.87-2.69,8.55-4.03,14.04-4.03,3.87,0,6.8.75,8.79,2.26,1.99,1.51,2.99,3.66,2.99,6.45,0,1.94-.7,3.6-2.1,5s-3.07,2.34-5,2.82c-1.94.48-3.77.24-5.49-.73l-6.45-3.71c-1.61-.86-3.31-.97-5.08-.32-1.77.65-3.47,1.69-5.08,3.15-1.61,1.45-3.04,2.98-4.28,4.6-1.24,1.61-2.12,2.9-2.66,3.87v44.69c0,3.66.81,6.19,2.42,7.58,1.61,1.4,4.84,2.37,9.68,2.9l4.03.48v6.13h-43.56Z"/>
    <path class="cls-2" d="M1229.61,183.61v-6.13l3.71-.48c3.87-.43,6.37-1.45,7.5-3.06,1.13-1.61,1.69-4.09,1.69-7.42v-45.66c0-3.98-1.08-6.53-3.23-7.66-2.15-1.13-5.27-1.8-9.36-2.02v-5.32l24.36-7.1h2.26v11.78h.97c5.05-4.41,9.62-7.58,13.71-9.52,4.09-1.94,8.98-2.9,14.68-2.9s10.11,1.24,13.55,3.71c3.44,2.48,5.65,5.54,6.61,9.2h1.29c5.27-4.73,10-8.07,14.2-10,4.2-1.94,8.98-2.9,14.36-2.9,4.84,0,8.82.81,11.94,2.42,3.12,1.61,5.43,3.87,6.94,6.78,1.5,2.9,2.26,6.45,2.26,10.65v48.56c0,3.33.59,5.81,1.77,7.42,1.18,1.61,3.71,2.64,7.58,3.06l3.55.48v6.13h-40.33v-6.13l3.71-.48c3.87-.43,6.37-1.45,7.5-3.06,1.13-1.61,1.69-4.09,1.69-7.42v-41.14c0-4.3-.65-7.55-1.94-9.76-1.29-2.2-3.04-3.74-5.24-4.6-2.21-.86-4.71-1.29-7.5-1.29-3.87,0-7.4.62-10.57,1.86-3.17,1.24-6.59,3.36-10.24,6.37v48.56c0,3.33.59,5.81,1.77,7.42,1.18,1.61,3.71,2.64,7.58,3.06l3.55.48v6.13h-40.33v-6.13l3.71-.48c3.87-.43,6.37-1.45,7.5-3.06,1.13-1.61,1.69-4.09,1.69-7.42v-41.14c0-4.3-.65-7.55-1.94-9.76-1.29-2.2-3.04-3.74-5.24-4.6-2.21-.86-4.71-1.29-7.5-1.29-3.98,0-7.58.65-10.81,1.94s-6.56,3.23-10,5.81v49.05c0,3.33.59,5.81,1.78,7.42,1.18,1.61,3.71,2.64,7.58,3.06l3.55.48v6.13h-40.33Z"/>
    <path class="cls-2" d="M1401.76,185.22c-4.95,0-8.87-.83-11.78-2.5-2.9-1.67-4.95-3.76-6.13-6.29-1.19-2.53-1.78-5.13-1.78-7.82,0-3.76,1.29-7.56,3.87-11.37,2.58-3.82,6.91-7.58,12.99-11.29,6.08-3.71,14.22-7.34,24.44-10.89l4.36-1.45.32-13.55c.11-3.98-1.13-7.29-3.71-9.92-2.58-2.63-6.03-3.95-10.33-3.95-3.87,0-7.04,1.18-9.52,3.55-2.48,2.37-4.3,5.86-5.49,10.49-.22,1.18-1.45,2.26-3.71,3.23-2.26.97-5.06,1.45-8.39,1.45-1.94,0-3.39-.24-4.36-.73s-1.18-1.53-.65-3.15c1.72-4.19,4.57-8.01,8.55-11.45,3.98-3.44,8.5-6.21,13.55-8.31,5.05-2.1,10.06-3.15,15-3.15,6.99,0,12.72,1.67,17.18,5,4.46,3.33,6.59,8.01,6.37,14.04l-1.61,48.24c-.11,4.19.94,6.88,3.15,8.07,2.2,1.18,6.43,1.99,12.66,2.42v4.68l-5.65,1.45c-3.55.86-6.29,1.53-8.23,2.02-1.94.48-3.44.73-4.52.73-2.9,0-5.08-.64-6.53-1.94s-2.48-2.8-3.07-4.52c-.59-1.72-1-3.12-1.21-4.19h-1.29c-4.63,4.52-8.93,7.5-12.91,8.95-3.98,1.45-7.85,2.18-11.62,2.18ZM1410.15,173.61c3.87,0,7.07-.62,9.6-1.86,2.53-1.24,4.81-2.55,6.86-3.95l.97-27.27-1.61.48c-7.85,2.48-13.77,5.14-17.75,7.99-3.98,2.85-6.67,5.65-8.07,8.39-1.4,2.74-2.1,5.08-2.1,7.02,0,6.13,4.03,9.2,12.1,9.2Z"/>
    <path class="cls-2" d="M1506.46,185.22c-7.85,0-14.82-1.86-20.89-5.57-6.08-3.71-10.84-8.76-14.28-15.17-3.44-6.4-5.16-13.63-5.16-21.7,0-8.6,1.91-16.27,5.73-22.99,3.82-6.72,9.06-12.02,15.73-15.89,6.67-3.87,14.2-5.81,22.59-5.81,5.59,0,10.46.75,14.6,2.26,4.14,1.51,7.37,3.33,9.68,5.49,2.31,2.15,3.47,4.19,3.47,6.13,0,1.72-.89,3.2-2.66,4.44-1.77,1.24-3.71,2.02-5.81,2.34-2.1.32-3.63.06-4.6-.81l-9.04-8.07c-1.4-1.5-2.98-2.5-4.76-2.98-1.77-.48-3.63-.73-5.57-.73-4.95,0-9.28,1.32-12.99,3.95-3.71,2.64-6.59,6.29-8.63,10.97-2.04,4.68-3.07,10.03-3.07,16.05,0,7.1,1.37,13.39,4.11,18.88,2.74,5.49,6.56,9.82,11.46,12.99,4.89,3.17,10.46,4.76,16.7,4.76,3.76,0,7.47-.64,11.13-1.94,3.66-1.29,7.47-3.44,11.46-6.45l3.23,3.07c-5.06,5.92-10.22,10.19-15.49,12.83-5.27,2.63-10.92,3.95-16.94,3.95Z"/>
    <path class="cls-2" d="M1558.74,223.46v-3.71l27.43-39.85-28.07-62.76c-1.51-3.33-2.98-5.86-4.44-7.58-1.45-1.72-3.42-2.8-5.89-3.23l-2.74-.48v-6.13h39.69v6.13l-4.03.32c-7.85.65-10.38,4.3-7.58,10.97l22.26,52.43-4.68.16,20.65-51.95c1.4-3.66,1.59-6.4.57-8.23-1.02-1.83-3.85-2.96-8.47-3.39l-3.39-.32v-6.13h35.17v6.13l-3.39.48c-1.72.22-3.25.75-4.6,1.61-1.35.86-2.56,2.07-3.63,3.63-1.08,1.56-2.15,3.58-3.23,6.05l-45.01,105.84h-16.62Z"/>
  </g>
</svg>