<?xml version="1.0" encoding="UTF-8"?>
<svg id="Layer_1" xmlns="http://www.w3.org/2000/svg" version="1.1" viewBox="0 0 1868.23 282.05">
  <!-- Generator: Adobe Illustrator 30.2.1, SVG Export Plug-In . SVG Version: 2.1.1 Build 1)  -->
  <defs>
    <style>
      .st0 {
        fill: #5ea7d2;
      }

      .st1 {
        fill: #393633;
      }
    </style>
  </defs>
  <g>
    <path class="st0" d="M225.93,190.38l9.13,14.6,23.52,37.08c-2.84-.21-3.82-2.1-5.42-3.7l-34.83-34.57-8.6-8.52-28.89-28.51-12.25-12.35-30.16-30.32-6-5.92-23.86-23.73-18.41-18.62-13.65-13.72-5.42-5.48c-4.35-4.4-8.43-6.84-14.67-6.83l-25.71.06-6.23-.07-6.97.05-16.99.12-.27-15.71V14.73L.63.09l127.06.02.03,4.43.06,6.54.04,9.13-.03,8.35-.03,7.03-.02,8.47v8.02l.09,6.9c.04,2.6.04,5.05-.07,7.71-.12,2.95.43,6.41.1,9.27-.77,6.7,2.02,11.34,6.65,15.6,2.93,2.7,5.68,5.66,8.55,8.52l18.2,18.19,11.59,11.54,18.96,18.97,8.46,8.42,7.22,7.35c4.71,4.8,8.59,9.81,11.78,15.69,1.93,3.55,4.43,6.59,6.65,10.15h0Z"/>
    <path class="st0" d="M164.38,231.35l-24.18.04h-47.08c-4.91,0-9.46.17-14.33-.1-10.9-.59-21.5-1.44-32.08-4.6-19.54-5.84-35.26-22.85-41.76-42.03C.65,171.98-.51,158.73.19,145.49l.49-9.35,19.78-.27,8-.09,6.6.17,38.96.16c2.09,0,4.68,1.9,6.09,3.34l19.03,19.51,38.37,39.01,13.95,14.15,14.72,15.57c.4.42.46,2.01.29,2.51s-1.26,1.14-2.1,1.14h.01Z"/>
    <path class="st0" d="M244.35,169l4.43,7.71,7.59,13.41c.81,1.43,1.01,3.23-1.06,3.99l-16.52-17.29-27.32-27.81-24.48-24.9-7.97-8.06-22.72-22.76-9.65-9.43c-3.12-3.05-5.62-7.1-5.62-11.87l-.02-71.8c7.25-.12,14-.34,21,0,6.86.34,13.17,2.26,19.95,3.49,15.59,5.69,25.58,11.71,35.58,25.18,6.23,8.39,9.96,17.65,12.3,27.81,2.13,9.24,2.3,18.42,2.26,27.9l-.02,6.02-.02,52.31c0,2.89,1.13,5.65,2.46,8.09l9.81,18h.02Z"/>
    <path class="st0" d="M225.45,266.89l-16.65-17.13-15.53-15.53-8.97-9.52-31.73-32.14-23-23-6.74-6.85-16.28-16.69-19.65-19.82c-4.56-4.6-9.29-3.67-15.51-3.77l-43.36.03-27.45.04.11-52.36v-5.2c0-.84.76-1.85,1.8-1.85l32.35.13,23.05-.12,10.41,11.13,20.51,20.55,29.3,29.56,15.83,15.77,14.19,14.36,34.72,34.72c6.19,6.19,11.35,12.51,16.22,19.78l7.23,10.79,20.76,31.14,5.26,7.84,15.46,23.29-10.4-4.63c-4.75-2.12-8.17-6.66-11.92-10.52h-.01Z"/>
  </g>
  <g>
    <path class="st0" d="M388.37,191.4c-13.92,0-26.11-2.85-36.56-8.55-10.44-5.7-18.55-13.68-24.31-23.93-5.77-10.25-8.64-22.22-8.64-35.89s3-25.45,9.02-35.7c6.01-10.25,14.43-18.26,25.26-24.02,10.83-5.76,23.33-8.64,37.5-8.64s26.05,2.85,36.37,8.55c10.31,5.7,18.35,13.68,24.12,23.93,5.76,10.25,8.64,22.28,8.64,36.08s-3.01,25.26-9.02,35.51c-6.01,10.25-14.37,18.27-25.07,24.02-10.7,5.77-23.14,8.64-37.31,8.64h0ZM393.69,181.15c9.5,0,17.75-2.12,24.78-6.37,7.03-4.24,12.46-10.19,16.34-17.86,3.86-7.66,5.79-16.68,5.79-27.06,0-12.65-2.4-23.86-7.22-33.62-4.81-9.75-11.39-17.41-19.75-22.98s-17.91-8.36-28.67-8.36c-9.5,0-17.75,2.12-24.78,6.36-7.03,4.24-12.46,10.19-16.34,17.86-3.86,7.66-5.79,16.68-5.79,27.06,0,12.54,2.4,23.71,7.22,33.52s11.39,17.5,19.75,23.07c8.36,5.57,17.91,8.36,28.67,8.36h0ZM453.89,206.97l-58.49-15.95,1.89-3.41h61.91v19.37h-5.32Z"/>
    <path class="st0" d="M471.93,189.5v-7.22l3.99-.38c4.31-.51,7.4-1.24,9.31-2.19s3.23-2.44,3.99-4.46c.77-2.02,1.26-4.74,1.52-8.17l7.98-88.11c.51-5.06-.32-8.64-2.47-10.73-2.15-2.08-6.71-3.45-13.68-4.08l-3.99-.38v-7.22h38.92l42.16,112.79h-4.93l40.83-112.79h37.79v7.22l-3.99.38c-4.56.38-7.91,1.08-10.06,2.08-2.15,1.01-3.48,2.53-3.99,4.56s-.64,4.74-.38,8.17l7.79,85.64c.51,4.81,1.46,8.39,2.85,10.73,1.39,2.34,3.32,3.92,5.79,4.74s5.41,1.42,8.83,1.8l4.37.38v7.22h-56.21v-7.22l6.26-.56c5.32-.51,8.55-2.06,9.69-4.65s1.46-6.74.95-12.44l-8.36-94.18,2.66.56-43.1,118.49h-7.22l-41.58-110.52-6.46,88.11c-.26,3.41-.09,6.2.47,8.36.56,2.15,2.06,3.73,4.46,4.74s6.33,1.65,11.77,1.89l3.99.19v7.22h-49.94v.04Z"/>
    <path class="st0" d="M752.4,190.65c-4.94-.38-9.91-.66-14.91-.86-5-.19-9.15-.28-12.44-.28h-69.13v-7.22l4.56-.38c6.2-.25,10.42-1.26,12.63-3.04,2.21-1.77,3.32-5,3.32-9.69v-92.29c0-4.68-1.11-7.91-3.32-9.69-2.21-1.77-6.43-2.78-12.63-3.04l-4.56-.38v-7.22h69.5c4.68,0,9.24-.06,13.68-.19,4.43-.13,8.79-.45,13.1-.95l2.85,30.77h-7.4c-1.65-7.46-4.31-12.78-7.98-15.95-3.67-3.17-8.92-4.74-15.76-4.74h-29.63v51.65h38.17c4.56,0,7.72-.95,9.5-2.85s2.85-5.25,3.23-10.06l.19-3.41h7.22v41.4h-7.22l-.19-3.61c-.26-4.68-1.29-7.98-3.13-9.88s-5.04-2.85-9.59-2.85h-38.17v43.29c0,3.8.73,6.52,2.19,8.17,1.46,1.65,3.95,2.6,7.5,2.85,3.54.26,8.29.38,14.24.38s11.3-.92,15.29-2.75,7.27-4.72,9.88-8.64c2.59-3.92,4.71-9.24,6.36-15.95h7.59l-4.93,37.41h.01Z"/>
    <path class="st0" d="M775.95,189.5v-7.22l4.56-.38c6.2-.25,10.42-1.29,12.63-3.13s3.32-5.04,3.32-9.59v-92.29c0-4.56-1.11-7.76-3.32-9.59-2.21-1.84-6.43-2.88-12.63-3.13l-4.56-.38v-7.22h62.85c15.57,0,28.93,2.5,40.07,7.5,11.13,5,19.68,12.28,25.64,21.83,5.94,9.56,8.92,21.3,8.92,35.23s-2.92,26.18-8.73,36.37c-5.83,10.19-14.31,18.07-25.45,23.65-11.15,5.57-24.56,8.36-40.25,8.36h-63.04ZM841.84,180.58c16.21,0,28.99-4.65,38.36-13.96,9.37-9.31,14.05-22.69,14.05-40.16,0-12.54-2.38-23.35-7.12-32.47-4.74-9.11-11.33-16.21-19.75-21.27-8.42-5.06-18.01-7.59-28.77-7.59-4.05,0-7.98.09-11.77.28-3.8.19-7.98.54-12.54,1.05v101.02c0,3.54.79,6.26,2.38,8.17,1.58,1.89,4.4,3.2,8.45,3.9s9.62,1.05,16.71,1.05h-.01Z"/>
    <path class="st1" d="M974.58,189.5v-7.22l4.56-.38c4.68-.25,8.13-.86,10.35-1.8,2.21-.95,3.71-2.34,4.46-4.18.75-1.84,1.14-4.08,1.14-6.74v-92.29c0-2.78-.38-5.06-1.14-6.84-.77-1.77-2.25-3.13-4.46-4.08s-5.66-1.55-10.35-1.8l-4.56-.38v-7.22h56.59c15.7,0,27.21,3.01,34.56,9.02,7.34,6.01,11.02,14.15,11.02,24.4,0,7.59-1.8,14.5-5.41,20.7-3.61,6.2-9.02,11.08-16.23,14.62s-16.33,5.38-27.34,5.51l-19.75.19v-8.36h14.43c6.84,0,12.88-1.11,18.14-3.32,5.25-2.21,9.37-5.6,12.35-10.16,2.98-4.56,4.46-10.32,4.46-17.28,0-8.47-2.21-15.16-6.65-20.03-4.44-4.87-11.33-7.31-20.7-7.31-5.06,0-9.18.41-12.35,1.24-3.17.82-4.74,2.7-4.74,5.6v97.8c0,2.79.38,5.06,1.14,6.84.75,1.78,2.44,3.13,5.04,4.08,2.59.95,6.49,1.55,11.68,1.8l4.56.38v7.22h-60.77,0Z"/>
    <path class="st1" d="M1084.9,189.5v-7.22l4.18-.56c4.56-.51,7.53-1.71,8.92-3.6s2.08-4.81,2.08-8.73V63.62c0-4.68-1.29-7.69-3.9-9.02-2.6-1.33-6.24-2.12-10.92-2.38v-6.26l29.25-8.36h2.66v65.32h1.14c3.8-3.3,7.4-5.98,10.83-8.07,3.41-2.08,7.03-3.61,10.83-4.56,3.8-.95,8.1-1.42,12.91-1.42,8.99,0,16.04,2.25,21.17,6.74,5.13,4.5,7.69,10.85,7.69,19.08v54.68c0,3.92.66,6.84,1.99,8.73,1.33,1.89,4.27,3.11,8.83,3.6l4.37.56v7.22h-47.47v-7.22l4.18-.56c4.56-.51,7.53-1.71,8.92-3.6,1.39-1.89,2.1-4.81,2.1-8.73v-47.47c0-5.19-.98-9.15-2.94-11.86-1.97-2.72-4.59-4.65-7.89-5.79-3.3-1.14-7.1-1.71-11.39-1.71-5.19,0-9.72.77-13.58,2.28-3.86,1.52-7.76,3.8-11.68,6.84v57.73c0,3.92.66,6.84,1.99,8.73s4.27,3.11,8.83,3.6l4.37.56v7.22h-47.47v-.02Z"/>
    <path class="st1" d="M1233.97,191.4c-5.83,0-10.44-.98-13.87-2.94-3.41-1.97-5.83-4.43-7.22-7.4-1.4-2.98-2.1-6.04-2.1-9.2,0-4.43,1.52-8.9,4.56-13.38,3.04-4.5,8.13-8.92,15.29-13.29,7.16-4.37,16.74-8.64,28.77-12.82l5.13-1.71.38-15.95c.13-4.68-1.33-8.58-4.37-11.68s-7.1-4.65-12.16-4.65c-4.56,0-8.29,1.39-11.21,4.18s-5.06,6.9-6.46,12.35c-.26,1.39-1.71,2.66-4.37,3.8s-5.96,1.71-9.88,1.71c-2.28,0-3.99-.28-5.13-.86s-1.39-1.8-.77-3.71c2.02-4.93,5.38-9.43,10.06-13.48,4.68-4.05,10-7.31,15.95-9.78s11.84-3.71,17.66-3.71c8.23,0,14.97,1.97,20.22,5.89,5.25,3.92,7.76,9.43,7.5,16.53l-1.89,56.78c-.13,4.93,1.11,8.1,3.71,9.5,2.59,1.39,7.57,2.34,14.9,2.85v5.51l-6.65,1.71c-4.18,1.01-7.4,1.8-9.69,2.38-2.28.56-4.05.86-5.32.86-3.41,0-5.98-.75-7.69-2.28s-2.92-3.3-3.61-5.32-1.18-3.67-1.42-4.93h-1.52c-5.45,5.32-10.51,8.83-15.2,10.53s-9.24,2.57-13.68,2.57l.06-.04ZM1243.85,177.73c4.56,0,8.32-.73,11.3-2.19s5.66-3,8.07-4.65l1.14-32.1-1.89.56c-9.24,2.92-16.21,6.05-20.89,9.4s-7.85,6.65-9.5,9.88c-1.65,3.23-2.47,5.98-2.47,8.26,0,7.22,4.74,10.83,14.24,10.83Z"/>
    <path class="st1" d="M1307.47,189.5v-7.22l4.37-.56c4.18-.38,7.03-1.45,8.55-3.23,1.52-1.77,2.28-4.81,2.28-9.11v-53.74c0-4.05-1.08-6.9-3.23-8.55-2.15-1.65-6.01-2.59-11.58-2.85v-6.26l28.67-8.36h2.66v15.2h1.71c2.78-4.05,6.46-7.66,11.02-10.83,4.56-3.17,10.06-4.74,16.53-4.74,4.56,0,8,.88,10.35,2.66s3.52,4.31,3.52,7.59c0,2.28-.82,4.24-2.47,5.89s-3.61,2.75-5.89,3.32c-2.28.56-4.44.28-6.46-.86l-7.59-4.37c-1.89-1.01-3.9-1.14-5.98-.38-2.08.77-4.08,1.99-5.98,3.71-1.89,1.71-3.58,3.51-5.04,5.41-1.46,1.89-2.5,3.41-3.13,4.56v52.6c0,4.31.95,7.29,2.85,8.92,1.89,1.65,5.7,2.79,11.39,3.41l4.74.56v7.22h-51.28Z"/>
    <path class="st1" d="M1390.82,189.5v-7.22l4.37-.56c4.56-.51,7.5-1.71,8.83-3.6s1.99-4.81,1.99-8.73v-53.74c0-4.68-1.27-7.69-3.8-9.02-2.53-1.33-6.2-2.12-11.02-2.38v-6.26l28.67-8.36h2.66v13.87h1.14c5.94-5.19,11.32-8.92,16.14-11.21,4.81-2.28,10.57-3.41,17.28-3.41s11.9,1.46,15.95,4.37c4.05,2.92,6.65,6.52,7.78,10.83h1.52c6.2-5.57,11.77-9.5,16.71-11.77,4.94-2.28,10.57-3.41,16.9-3.41,5.7,0,10.38.95,14.05,2.85s6.39,4.56,8.17,7.98c1.77,3.41,2.66,7.59,2.66,12.54v57.16c0,3.92.69,6.84,2.08,8.73s4.37,3.11,8.92,3.6l4.18.56v7.22h-47.47v-7.22l4.37-.56c4.56-.51,7.5-1.71,8.83-3.6s1.99-4.81,1.99-8.73v-48.42c0-5.06-.77-8.89-2.28-11.49-1.52-2.59-3.58-4.4-6.17-5.41-2.6-1.01-5.54-1.52-8.83-1.52-4.56,0-8.71.73-12.44,2.19-3.73,1.46-7.76,3.95-12.05,7.5v57.16c0,3.92.69,6.84,2.08,8.73s4.37,3.11,8.92,3.6l4.18.56v7.22h-47.47v-7.22l4.37-.56c4.56-.51,7.5-1.71,8.83-3.6s1.99-4.81,1.99-8.73v-48.42c0-5.06-.77-8.89-2.28-11.49-1.52-2.59-3.58-4.4-6.17-5.41-2.6-1.01-5.54-1.52-8.83-1.52-4.68,0-8.92.77-12.72,2.28s-7.72,3.8-11.77,6.84v57.73c0,3.92.69,6.84,2.1,8.73,1.39,1.89,4.37,3.11,8.92,3.6l4.18.56v7.22h-47.47l.02-.04Z"/>
    <path class="st1" d="M1593.44,191.4c-5.83,0-10.44-.98-13.87-2.94-3.41-1.97-5.83-4.43-7.22-7.4-1.4-2.98-2.1-6.04-2.1-9.2,0-4.43,1.52-8.9,4.56-13.38,3.04-4.5,8.13-8.92,15.29-13.29,7.16-4.37,16.74-8.64,28.77-12.82l5.13-1.71.38-15.95c.13-4.68-1.33-8.58-4.37-11.68s-7.1-4.65-12.16-4.65c-4.56,0-8.29,1.39-11.21,4.18s-5.06,6.9-6.46,12.35c-.26,1.39-1.71,2.66-4.37,3.8s-5.96,1.71-9.88,1.71c-2.28,0-3.99-.28-5.13-.86s-1.39-1.8-.77-3.71c2.02-4.93,5.38-9.43,10.06-13.48,4.68-4.05,10-7.31,15.95-9.78s11.84-3.71,17.66-3.71c8.23,0,14.97,1.97,20.22,5.89,5.25,3.92,7.76,9.43,7.5,16.53l-1.89,56.78c-.13,4.93,1.11,8.1,3.71,9.5,2.59,1.39,7.57,2.34,14.9,2.85v5.51l-6.65,1.71c-4.18,1.01-7.4,1.8-9.69,2.38-2.28.56-4.05.86-5.32.86-3.41,0-5.98-.75-7.69-2.28s-2.92-3.3-3.61-5.32-1.18-3.67-1.42-4.93h-1.52c-5.45,5.32-10.51,8.83-15.2,10.53s-9.24,2.57-13.68,2.57l.06-.04ZM1603.32,177.73c4.56,0,8.32-.73,11.3-2.19s5.66-3,8.07-4.65l1.14-32.1-1.89.56c-9.24,2.92-16.21,6.05-20.89,9.4s-7.85,6.65-9.5,9.88c-1.65,3.23-2.47,5.98-2.47,8.26,0,7.22,4.74,10.83,14.24,10.83Z"/>
    <path class="st1" d="M1716.68,191.4c-9.24,0-17.44-2.19-24.59-6.56-7.16-4.37-12.76-10.31-16.81-17.86-4.05-7.53-6.07-16.04-6.07-25.54,0-10.12,2.25-19.15,6.74-27.06,4.5-7.91,10.66-14.15,18.51-18.7,7.85-4.56,16.71-6.84,26.59-6.84,6.58,0,12.31.88,17.18,2.66s8.67,3.92,11.39,6.46c2.72,2.53,4.08,4.93,4.08,7.22,0,2.02-1.05,3.77-3.13,5.23-2.08,1.46-4.37,2.38-6.84,2.75-2.47.38-4.27.07-5.41-.95l-10.64-9.5c-1.65-1.77-3.51-2.94-5.6-3.51-2.08-.56-4.27-.86-6.56-.86-5.83,0-10.92,1.55-15.29,4.65-4.37,3.11-7.76,7.4-10.16,12.91-2.4,5.51-3.61,11.81-3.61,18.89,0,8.36,1.61,15.76,4.84,22.22,3.23,6.46,7.72,11.56,13.49,15.29,5.76,3.73,12.31,5.6,19.66,5.6,4.43,0,8.79-.75,13.1-2.28,4.31-1.52,8.79-4.05,13.49-7.59l3.8,3.61c-5.96,6.97-12.03,11.99-18.23,15.1-6.2,3.1-12.85,4.65-19.94,4.65h0Z"/>
    <path class="st1" d="M1778.21,236.41v-4.37l32.29-46.9-33.04-73.87c-1.78-3.92-3.51-6.9-5.23-8.92-1.71-2.02-4.03-3.3-6.93-3.8l-3.23-.56v-7.22h46.72v7.22l-4.74.38c-9.24.77-12.22,5.06-8.92,12.91l26.2,61.71-5.51.19,24.31-61.15c1.65-4.31,1.87-7.53.67-9.69-1.2-2.15-4.53-3.48-9.97-3.99l-3.99-.38v-7.22h41.4v7.22l-3.99.56c-2.02.26-3.83.88-5.41,1.89s-3.01,2.44-4.27,4.27c-1.27,1.84-2.53,4.21-3.8,7.12l-52.98,124.57h-19.56Z"/>
  </g>
</svg>