<?xml version="1.0" encoding="UTF-8"?>
<svg id="Layer_1" xmlns="http://www.w3.org/2000/svg" version="1.1" viewBox="0 0 321.96 325">
  <!-- Generator: Adobe Illustrator 30.2.1, SVG Export Plug-In . SVG Version: 2.1.1 Build 1)  -->
  <defs>
    <style>
      .st0 {
        fill: #5ea7d2;
      }
    </style>
  </defs>
  <path class="st0" d="M257.62,219.35l9.13,14.6,23.52,37.08c-2.84-.21-3.82-2.1-5.42-3.7l-34.83-34.57-8.6-8.52-28.89-28.51-12.25-12.35-30.16-30.32-6-5.92-23.86-23.73-18.41-18.62-13.65-13.72-5.42-5.48c-4.35-4.4-8.43-6.84-14.67-6.83l-25.71.06-6.23-.07-6.97.05-16.99.12-.27-15.71v-19.51s.37-14.64.37-14.64l127.06.02.03,4.43.06,6.54.04,9.13-.03,8.35-.03,7.03-.02,8.47v8.02s.09,6.9.09,6.9c.04,2.6.04,5.05-.07,7.71-.12,2.95.43,6.41.1,9.27-.77,6.7,2.02,11.34,6.65,15.6,2.93,2.7,5.68,5.66,8.55,8.52l18.2,18.19,11.59,11.54,18.96,18.97,8.46,8.42,7.22,7.35c4.71,4.8,8.59,9.81,11.78,15.69,1.93,3.55,4.43,6.59,6.65,10.15Z"/>
  <path class="st0" d="M196.07,260.32l-24.18.04h-47.08c-4.91,0-9.46.17-14.33-.1-10.9-.59-21.5-1.44-32.08-4.6-19.54-5.84-35.26-22.85-41.76-42.03-4.3-12.69-5.46-25.94-4.76-39.18l.49-9.35,19.78-.27,8-.09,6.6.17,38.96.16c2.09,0,4.68,1.9,6.09,3.34l19.03,19.51,38.37,39.01,13.95,14.15,14.72,15.57c.4.42.46,2.01.29,2.51s-1.26,1.14-2.1,1.14Z"/>
  <path class="st0" d="M276.04,197.96l4.43,7.71,7.59,13.41c.81,1.43,1.01,3.23-1.06,3.99l-16.52-17.29-27.32-27.81-24.48-24.9-7.97-8.06-22.72-22.76-9.65-9.43c-3.12-3.05-5.62-7.1-5.62-11.87l-.02-71.8c7.25-.12,14-.34,21,0,6.86.34,13.17,2.26,19.95,3.49,15.59,5.69,25.58,11.71,35.58,25.18,6.23,8.39,9.96,17.65,12.3,27.81,2.13,9.24,2.3,18.42,2.26,27.9l-.02,6.02-.02,52.31c0,2.89,1.13,5.65,2.46,8.09l9.81,18Z"/>
  <path class="st0" d="M257.14,295.86l-16.65-17.13-15.53-15.53-8.97-9.52-31.73-32.14-23-23-6.74-6.85-16.28-16.69-19.65-19.82c-4.56-4.6-9.29-3.67-15.51-3.77l-43.36.03-27.45.04.11-52.36v-5.2c.01-.84.76-1.85,1.8-1.85l32.35.13,23.05-.12,10.41,11.13,20.51,20.55,29.3,29.56,15.83,15.77,14.19,14.36,34.72,34.72c6.19,6.19,11.35,12.51,16.22,19.78l7.23,10.79,20.76,31.14,5.26,7.84,15.46,23.29-10.4-4.63c-4.75-2.12-8.17-6.66-11.92-10.52Z"/>
</svg>